<?xml version="1.0" encoding="UTF-8" standalone="no"?>
<!DOCTYPE svg PUBLIC "-//W3C//DTD SVG 1.1//EN" "http://www.w3.org/Graphics/SVG/1.1/DTD/svg11.dtd">
<svg width="100%" height="100%" viewBox="0 0 2084 2084" version="1.1" xmlns="http://www.w3.org/2000/svg" xmlns:xlink="http://www.w3.org/1999/xlink" xml:space="preserve" xmlns:serif="http://www.serif.com/" style="fill-rule:evenodd;clip-rule:evenodd;stroke-linejoin:round;stroke-miterlimit:2;">
    <g transform="matrix(4.16667,0,0,4.16667,-2304.17,0)">
        <g transform="matrix(1.10619,0,0,1.19048,553,0)">
            <rect id="ico" x="0" y="0" width="452" height="420" style="fill:white;"/>
            <g id="ico1" serif:id="ico">
                <g id="Big-P" serif:id="Big P" transform="matrix(1.39707,0,0,1.29816,-93.1426,-14.0892)">
                    <g transform="matrix(-3.32765e-16,-1.17573,1.01822,-4.45091e-16,156.144,256.172)">
                        <path d="M178,-1L202,47L154,47L178,-1Z" style="fill:rgb(75,107,196);"/>
                    </g>
                    <g transform="matrix(3.32765e-16,-1.17573,-1.01822,-4.45091e-16,202.982,284.39)">
                        <path d="M178,-1L202,47L154,47L178,-1Z" style="fill:rgb(63,89,176);"/>
                    </g>
                    <g transform="matrix(-3.32765e-16,-1.17573,1.01822,-4.45091e-16,156.144,312.607)">
                        <path d="M178,-1L202,47L154,47L178,-1Z" style="fill:rgb(40,59,129);"/>
                    </g>
                    <g transform="matrix(3.32765e-16,-1.17573,-1.01822,-4.45091e-16,202.982,340.825)">
                        <path d="M178,-1L202,47L154,47L178,-1Z" style="fill:rgb(38,49,106);"/>
                    </g>
                    <g transform="matrix(-3.32765e-16,-1.17573,1.01822,-4.45091e-16,156.144,369.042)">
                        <path d="M178,-1L202,47L154,47L178,-1Z" style="fill:rgb(30,34,72);"/>
                    </g>
                    <g transform="matrix(3.32765e-16,-1.17573,-1.01822,-4.45091e-16,202.982,397.26)">
                        <path d="M178,-1L202,47L154,47L178,-1Z" style="fill:rgb(23,27,53);"/>
                    </g>
                    <g transform="matrix(-3.32765e-16,-1.17573,1.01822,-4.45091e-16,156.144,425.478)">
                        <path d="M178,-1L202,47L154,47L178,-1Z" style="fill:rgb(14,17,30);"/>
                    </g>
                    <g transform="matrix(3.32765e-16,-1.17573,-1.01822,-4.45091e-16,251.856,256.172)">
                        <path d="M178,-1L202,47L154,47L178,-1Z" style="fill:rgb(84,122,209);"/>
                    </g>
                    <g transform="matrix(-3.32765e-16,-1.17573,1.01822,-4.45091e-16,205.018,284.39)">
                        <path d="M178,-1L202,47L154,47L178,-1Z" style="fill:rgb(52,79,155);"/>
                    </g>
                    <g transform="matrix(3.32765e-16,-1.17573,-1.01822,-4.45091e-16,300.73,284.39)">
                        <path d="M178,-1L202,47L154,47L178,-1Z" style="fill:rgb(40,59,129);"/>
                    </g>
                    <g transform="matrix(-3.32765e-16,-1.17573,1.01822,-4.45091e-16,253.893,312.607)">
                        <path d="M178,-1L202,47L154,47L178,-1Z" style="fill:rgb(64,80,137);"/>
                    </g>
                    <g transform="matrix(3.32765e-16,-1.17573,-1.01822,-4.45091e-16,300.73,340.825)">
                        <path d="M178,-1L202,47L154,47L178,-1Z" style="fill:rgb(64,80,137);"/>
                    </g>
                    <g transform="matrix(-3.32765e-16,-1.17573,1.01822,-4.45091e-16,205.018,340.825)">
                        <path d="M178,-1L202,47L154,47L178,-1Z" style="fill:rgb(50,61,112);"/>
                    </g>
                    <g transform="matrix(3.32765e-16,-1.17573,-1.01822,-4.45091e-16,251.856,369.042)">
                        <path d="M178,-1L202,47L154,47L178,-1Z" style="fill:rgb(43,51,99);"/>
                    </g>
                    <g transform="matrix(-3.32765e-16,-1.17573,1.01822,-4.45091e-16,205.018,397.26)">
                        <path d="M178,-1L202,47L154,47L178,-1Z" style="fill:rgb(32,39,73);"/>
                    </g>
                    <g transform="matrix(3.32765e-16,-1.17573,-1.01822,-4.45091e-16,251.856,425.478)">
                        <path d="M178,-1L202,47L154,47L178,-1Z" style="fill:rgb(25,30,51);"/>
                    </g>
                </g>
                <g transform="matrix(0.940803,0,0,0.890821,-111.702,76.6977)">
                    <g transform="matrix(69.8023,0,0,69.8023,139,332)">
                        <path d="M0.045,-0C0.042,-0 0.04,-0.002 0.04,-0.005L0.042,-0.692C0.042,-0.695 0.043,-0.696 0.046,-0.696L0.238,-0.696C0.299,-0.696 0.348,-0.677 0.384,-0.64C0.419,-0.603 0.437,-0.552 0.437,-0.488C0.437,-0.441 0.428,-0.4 0.409,-0.365C0.39,-0.33 0.366,-0.304 0.336,-0.285C0.306,-0.266 0.273,-0.257 0.238,-0.257L0.162,-0.257L0.162,-0.005C0.162,-0.002 0.16,-0 0.157,-0L0.045,-0ZM0.162,-0.378L0.238,-0.378C0.259,-0.378 0.278,-0.388 0.294,-0.408C0.309,-0.429 0.317,-0.455 0.317,-0.488C0.317,-0.514 0.31,-0.535 0.296,-0.552C0.282,-0.569 0.263,-0.577 0.238,-0.577L0.162,-0.576L0.162,-0.378Z" style="fill:rgb(40,59,129);fill-rule:nonzero;"/>
                    </g>
                    <g transform="matrix(69.8023,0,0,69.8023,188.049,332)">
                        <path d="M0.044,-0C0.041,-0 0.04,-0.002 0.04,-0.005L0.042,-0.692C0.042,-0.695 0.043,-0.696 0.046,-0.696L0.248,-0.696C0.284,-0.696 0.317,-0.687 0.347,-0.67C0.378,-0.652 0.402,-0.628 0.42,-0.599C0.438,-0.569 0.447,-0.535 0.447,-0.498C0.447,-0.473 0.443,-0.451 0.436,-0.432C0.429,-0.412 0.42,-0.395 0.41,-0.382C0.4,-0.368 0.391,-0.358 0.383,-0.351C0.419,-0.311 0.437,-0.264 0.437,-0.21L0.438,-0.005C0.438,-0.002 0.436,-0 0.433,-0L0.32,-0C0.317,-0 0.316,-0.001 0.316,-0.003L0.316,-0.21C0.316,-0.234 0.308,-0.255 0.291,-0.273C0.274,-0.29 0.253,-0.299 0.228,-0.299L0.162,-0.299L0.161,-0.005C0.161,-0.002 0.16,-0 0.157,-0L0.044,-0ZM0.162,-0.419L0.248,-0.419C0.269,-0.419 0.287,-0.427 0.303,-0.442C0.319,-0.457 0.327,-0.476 0.327,-0.498C0.327,-0.519 0.319,-0.538 0.304,-0.553C0.288,-0.568 0.269,-0.576 0.248,-0.576L0.162,-0.576L0.162,-0.419Z" style="fill:rgb(40,59,129);fill-rule:nonzero;"/>
                    </g>
                    <g transform="matrix(69.8023,0,0,69.8023,238.493,332)">
                        <path d="M0.225,0.01C0.189,0.01 0.156,0.001 0.127,-0.018C0.097,-0.036 0.073,-0.06 0.055,-0.091C0.037,-0.121 0.028,-0.154 0.028,-0.191L0.029,-0.508C0.029,-0.545 0.038,-0.578 0.056,-0.608C0.073,-0.638 0.097,-0.662 0.127,-0.68C0.157,-0.698 0.19,-0.707 0.225,-0.707C0.261,-0.707 0.294,-0.698 0.323,-0.68C0.352,-0.662 0.376,-0.638 0.394,-0.608C0.411,-0.578 0.42,-0.545 0.42,-0.508L0.421,-0.191C0.421,-0.154 0.412,-0.121 0.395,-0.091C0.377,-0.06 0.353,-0.036 0.324,-0.018C0.294,0.001 0.261,0.01 0.225,0.01ZM0.225,-0.111C0.245,-0.111 0.263,-0.119 0.278,-0.136C0.293,-0.152 0.3,-0.17 0.3,-0.191L0.299,-0.508C0.299,-0.53 0.292,-0.549 0.278,-0.564C0.264,-0.579 0.246,-0.587 0.225,-0.587C0.204,-0.587 0.187,-0.58 0.172,-0.565C0.157,-0.55 0.15,-0.531 0.15,-0.508L0.15,-0.191C0.15,-0.169 0.157,-0.15 0.172,-0.135C0.187,-0.119 0.204,-0.111 0.225,-0.111Z" style="fill:rgb(40,59,129);fill-rule:nonzero;"/>
                    </g>
                    <g transform="matrix(69.8023,0,0,69.8023,286.076,332)">
                        <path d="M0.152,-0C0.149,-0 0.148,-0.002 0.147,-0.005L0.009,-0.692C0.008,-0.695 0.01,-0.696 0.013,-0.696L0.126,-0.696C0.129,-0.696 0.13,-0.695 0.131,-0.692L0.213,-0.234L0.293,-0.692C0.294,-0.695 0.295,-0.696 0.298,-0.696L0.41,-0.696C0.413,-0.696 0.415,-0.695 0.414,-0.692L0.278,-0.005C0.277,-0.002 0.276,-0 0.273,-0L0.152,-0Z" style="fill:rgb(40,59,129);fill-rule:nonzero;"/>
                    </g>
                    <g transform="matrix(69.8023,0,0,69.8023,330.658,332)">
                        <path d="M0.048,-0.289C0.045,-0.289 0.043,-0.29 0.043,-0.293L0.043,-0.402C0.043,-0.405 0.045,-0.406 0.048,-0.406L0.241,-0.406C0.244,-0.406 0.246,-0.405 0.246,-0.402L0.246,-0.293C0.246,-0.29 0.244,-0.289 0.241,-0.289L0.048,-0.289Z" style="fill:rgb(40,59,129);fill-rule:nonzero;"/>
                    </g>
                    <g transform="matrix(69.8023,0,0,69.8023,368.957,332)">
                        <path d="M0.224,0.01C0.187,0.01 0.154,0.001 0.125,-0.018C0.095,-0.036 0.071,-0.06 0.054,-0.091C0.037,-0.122 0.028,-0.156 0.028,-0.194L0.029,-0.506C0.029,-0.543 0.038,-0.576 0.055,-0.607C0.071,-0.637 0.095,-0.661 0.125,-0.68C0.154,-0.698 0.187,-0.707 0.224,-0.707C0.261,-0.707 0.294,-0.698 0.323,-0.68C0.352,-0.662 0.376,-0.638 0.393,-0.608C0.41,-0.577 0.419,-0.543 0.419,-0.506L0.419,-0.46C0.419,-0.457 0.418,-0.456 0.415,-0.456L0.303,-0.456C0.3,-0.456 0.299,-0.457 0.299,-0.46L0.299,-0.506C0.299,-0.528 0.292,-0.547 0.278,-0.563C0.263,-0.579 0.245,-0.587 0.224,-0.587C0.2,-0.587 0.182,-0.579 0.169,-0.563C0.156,-0.546 0.15,-0.527 0.15,-0.506L0.15,-0.194C0.15,-0.169 0.157,-0.149 0.172,-0.134C0.186,-0.119 0.203,-0.111 0.224,-0.111C0.245,-0.111 0.263,-0.119 0.278,-0.137C0.292,-0.154 0.299,-0.173 0.299,-0.194L0.299,-0.24C0.299,-0.243 0.3,-0.244 0.303,-0.244L0.416,-0.244C0.419,-0.244 0.42,-0.243 0.42,-0.24L0.42,-0.194C0.42,-0.156 0.411,-0.122 0.394,-0.091C0.376,-0.06 0.352,-0.036 0.323,-0.018C0.294,0.001 0.261,0.01 0.224,0.01Z" style="fill:rgb(40,59,129);fill-rule:nonzero;"/>
                    </g>
                    <g transform="matrix(69.8023,0,0,69.8023,417.726,332)">
                        <path d="M0.044,-0C0.041,-0 0.04,-0.002 0.04,-0.005L0.041,-0.692C0.041,-0.695 0.043,-0.696 0.046,-0.696L0.157,-0.696C0.16,-0.696 0.162,-0.695 0.162,-0.692L0.161,-0.42L0.311,-0.42L0.311,-0.692C0.311,-0.695 0.312,-0.696 0.315,-0.696L0.426,-0.696C0.429,-0.696 0.431,-0.695 0.431,-0.692L0.433,-0.005C0.433,-0.002 0.431,-0 0.428,-0L0.316,-0C0.313,-0 0.311,-0.002 0.311,-0.005L0.311,-0.299L0.161,-0.299L0.161,-0.005C0.161,-0.002 0.16,-0 0.157,-0L0.044,-0Z" style="fill:rgb(40,59,129);fill-rule:nonzero;"/>
                    </g>
                    <g transform="matrix(69.8023,0,0,69.8023,468.031,332)">
                        <path d="M0.006,-0.005L0.13,-0.692C0.131,-0.695 0.132,-0.696 0.135,-0.696L0.28,-0.696C0.283,-0.696 0.284,-0.695 0.285,-0.692L0.404,-0.005C0.405,-0.002 0.403,-0 0.4,-0L0.289,-0C0.286,-0 0.285,-0.002 0.284,-0.005L0.273,-0.078L0.137,-0.078L0.126,-0.005C0.125,-0.002 0.124,-0 0.121,-0L0.01,-0C0.007,-0 0.006,-0.002 0.006,-0.005ZM0.157,-0.185L0.253,-0.185L0.212,-0.466L0.206,-0.503L0.202,-0.466L0.157,-0.185Z" style="fill:rgb(40,59,129);fill-rule:nonzero;"/>
                    </g>
                    <g transform="matrix(69.8023,0,0,69.8023,515.195,332)">
                        <path d="M0.045,-0C0.042,-0 0.04,-0.002 0.04,-0.005L0.041,-0.692C0.041,-0.695 0.042,-0.696 0.045,-0.696L0.157,-0.696C0.16,-0.696 0.161,-0.695 0.161,-0.692L0.162,-0.005C0.162,-0.002 0.161,-0 0.158,-0L0.045,-0Z" style="fill:rgb(40,59,129);fill-rule:nonzero;"/>
                    </g>
                    <g transform="matrix(69.8023,0,0,69.8023,547.003,332)">
                        <path d="M0.049,-0C0.044,-0 0.041,-0.002 0.041,-0.007L0.04,-0.688C0.04,-0.693 0.043,-0.696 0.048,-0.696L0.138,-0.696L0.307,-0.302L0.302,-0.688C0.302,-0.693 0.305,-0.696 0.311,-0.696L0.41,-0.696C0.414,-0.696 0.416,-0.693 0.416,-0.688L0.417,-0.006C0.417,-0.002 0.415,-0 0.412,-0L0.324,-0L0.151,-0.368L0.158,-0.008C0.158,-0.003 0.155,-0 0.149,-0L0.049,-0Z" style="fill:rgb(40,59,129);fill-rule:nonzero;"/>
                    </g>
                </g>
            </g>
        </g>
    </g>
</svg>
