<?xml version="1.0" encoding="UTF-8" standalone="no"?>
<!DOCTYPE svg PUBLIC "-//W3C//DTD SVG 1.1//EN" "http://www.w3.org/Graphics/SVG/1.1/DTD/svg11.dtd">
<svg width="100%" height="100%" viewBox="0 0 500 500" version="1.1" xmlns="http://www.w3.org/2000/svg" xmlns:xlink="http://www.w3.org/1999/xlink" xml:space="preserve" xmlns:serif="http://www.serif.com/" style="fill-rule:evenodd;clip-rule:evenodd;stroke-linejoin:round;stroke-miterlimit:2;">
    <g transform="matrix(1.10619,0,0,1.19048,0,0)">
        <rect id="Artboard1" x="0" y="0" width="452" height="420" style="fill:white;"/>
        <g id="Artboard11" serif:id="Artboard1">
            <g id="Big-P" serif:id="Big P" transform="matrix(1.02978,0,0,0.956874,-9.23967,12.5534)">
                <g transform="matrix(-3.32765e-16,-1.17573,1.01822,-4.45091e-16,156.144,256.172)">
                    <path d="M178,-1L202,47L154,47L178,-1Z" style="fill:rgb(75,107,196);"/>
                </g>
                <g transform="matrix(3.32765e-16,-1.17573,-1.01822,-4.45091e-16,202.982,284.39)">
                    <path d="M178,-1L202,47L154,47L178,-1Z" style="fill:rgb(63,89,176);"/>
                </g>
                <g transform="matrix(-3.32765e-16,-1.17573,1.01822,-4.45091e-16,156.144,312.607)">
                    <path d="M178,-1L202,47L154,47L178,-1Z" style="fill:rgb(40,59,129);"/>
                </g>
                <g transform="matrix(3.32765e-16,-1.17573,-1.01822,-4.45091e-16,202.982,340.825)">
                    <path d="M178,-1L202,47L154,47L178,-1Z" style="fill:rgb(38,49,106);"/>
                </g>
                <g transform="matrix(-3.32765e-16,-1.17573,1.01822,-4.45091e-16,156.144,369.042)">
                    <path d="M178,-1L202,47L154,47L178,-1Z" style="fill:rgb(30,34,72);"/>
                </g>
                <g transform="matrix(3.32765e-16,-1.17573,-1.01822,-4.45091e-16,202.982,397.26)">
                    <path d="M178,-1L202,47L154,47L178,-1Z" style="fill:rgb(23,27,53);"/>
                </g>
                <g transform="matrix(-3.32765e-16,-1.17573,1.01822,-4.45091e-16,156.144,425.478)">
                    <path d="M178,-1L202,47L154,47L178,-1Z" style="fill:rgb(14,17,30);"/>
                </g>
                <g transform="matrix(3.32765e-16,-1.17573,-1.01822,-4.45091e-16,251.856,256.172)">
                    <path d="M178,-1L202,47L154,47L178,-1Z" style="fill:rgb(84,122,209);"/>
                </g>
                <g transform="matrix(-3.32765e-16,-1.17573,1.01822,-4.45091e-16,205.018,284.39)">
                    <path d="M178,-1L202,47L154,47L178,-1Z" style="fill:rgb(52,79,155);"/>
                </g>
                <g transform="matrix(3.32765e-16,-1.17573,-1.01822,-4.45091e-16,300.73,284.39)">
                    <path d="M178,-1L202,47L154,47L178,-1Z" style="fill:rgb(40,59,129);"/>
                </g>
                <g transform="matrix(-3.32765e-16,-1.17573,1.01822,-4.45091e-16,253.893,312.607)">
                    <path d="M178,-1L202,47L154,47L178,-1Z" style="fill:rgb(64,80,137);"/>
                </g>
                <g transform="matrix(3.32765e-16,-1.17573,-1.01822,-4.45091e-16,300.73,340.825)">
                    <path d="M178,-1L202,47L154,47L178,-1Z" style="fill:rgb(64,80,137);"/>
                </g>
                <g transform="matrix(-3.32765e-16,-1.17573,1.01822,-4.45091e-16,205.018,340.825)">
                    <path d="M178,-1L202,47L154,47L178,-1Z" style="fill:rgb(50,61,112);"/>
                </g>
                <g transform="matrix(3.32765e-16,-1.17573,-1.01822,-4.45091e-16,251.856,369.042)">
                    <path d="M178,-1L202,47L154,47L178,-1Z" style="fill:rgb(43,51,99);"/>
                </g>
                <g transform="matrix(-3.32765e-16,-1.17573,1.01822,-4.45091e-16,205.018,397.26)">
                    <path d="M178,-1L202,47L154,47L178,-1Z" style="fill:rgb(32,39,73);"/>
                </g>
                <g transform="matrix(3.32765e-16,-1.17573,-1.01822,-4.45091e-16,251.856,425.478)">
                    <path d="M178,-1L202,47L154,47L178,-1Z" style="fill:rgb(25,30,51);"/>
                </g>
            </g>
            <g transform="matrix(0.940803,0,0,0.890821,-111.702,29.1179)">
                <g transform="matrix(69.8023,0,0,69.8023,579.391,332)">
                </g>
                <text x="139px" y="332px" style="font-family:'Staatliches-Regular', 'Staatliches';font-size:69.802px;fill:rgb(40,59,129);">P<tspan x="188.049px 238.493px 286.076px 330.658px 368.957px 417.726px 468.031px 515.195px 547.003px " y="332px 332px 332px 332px 332px 332px 332px 332px 332px ">ROV-CHAIN</tspan></text>
            </g>
            <g transform="matrix(0.775065,0,0,0.572165,11.1032,148.638)">
                <g transform="matrix(54.5977,0,0,54.5977,542.99,392)">
                </g>
                <text x="12px" y="392px" style="font-family:'Manual-UltraLightCompressed', 'Manual';font-weight:250;font-stretch:ultra-condensed;font-size:54.598px;fill:rgb(43,47,82);">W<tspan x="53.385px 85.079px 116.991px 146.174px 177.895px 209.534px 240.983px 261.757px 271.148px 280.539px 299.32px 329.349px 358.095px 390.608px 425.441px 457.08px 489.593px 521.451px " y="392px 392px 392px 392px 392px 392px 392px 392px 392px 392px 392px 392px 392px 392px 392px 392px 392px 392px ">3C-PROV   STANDARD</tspan></text>
            </g>
        </g>
    </g>
</svg>
